<svg width="23" height="23" viewBox="0 0 23 23" fill="none" xmlns="http://www.w3.org/2000/svg">
<path fill-rule="evenodd" clip-rule="evenodd" d="M11.4974 22.9577C5.16913 22.9577 0.0390625 17.8276 0.0390625 11.4993C0.0390625 5.17109 5.16913 0.0410156 11.4974 0.0410156C17.8257 0.0410156 22.9557 5.17109 22.9557 11.4993C22.9557 17.8276 17.8257 22.9577 11.4974 22.9577ZM11.4974 20.8743C16.6751 20.8743 20.8724 16.677 20.8724 11.4993C20.8724 6.32168 16.6751 2.12435 11.4974 2.12435C6.31973 2.12435 2.1224 6.32168 2.1224 11.4993C2.1224 16.677 6.31973 20.8743 11.4974 20.8743ZM14.9293 7.63728L9.41588 13.1507L7.02745 10.7623L5.55432 12.2354L9.41588 16.097L16.4025 9.11042L14.9293 7.63728Z" fill="#107886"/>
</svg>
