<svg width="25" height="25" viewBox="0 0 25 25" fill="none" xmlns="http://www.w3.org/2000/svg">
<path fill-rule="evenodd" clip-rule="evenodd" d="M12.4974 23.9577C6.16913 23.9577 1.03906 18.8276 1.03906 12.4993C1.03906 6.17109 6.16913 1.04102 12.4974 1.04102C18.8257 1.04102 23.9557 6.17109 23.9557 12.4993C23.9557 18.8276 18.8257 23.9577 12.4974 23.9577ZM12.4974 21.8743C17.6751 21.8743 21.8724 17.677 21.8724 12.4993C21.8724 7.32168 17.6751 3.12435 12.4974 3.12435C7.31973 3.12435 3.1224 7.32168 3.1224 12.4993C3.1224 17.677 7.31973 21.8743 12.4974 21.8743ZM15.9293 8.63728L10.4159 14.1507L8.02745 11.7623L6.55432 13.2354L10.4159 17.097L17.4025 10.1104L15.9293 8.63728Z" fill="#828791"/>
</svg>
