<svg width="281" height="140" viewBox="0 0 281 140" fill="none" xmlns="http://www.w3.org/2000/svg">
<path d="M127.347 70.8086H120.152V94.9429H127.347V70.8086Z" fill="white"/>
<path d="M188.456 31.9969C188.456 44.7771 179.125 57.65 158.714 62.1879V94.9442H151.519V63.3825C148.495 63.7159 145.286 63.9104 141.873 63.9104H92.5352V56.7053H120.141V20.9762H127.336V56.7146H141.873C145.258 56.7146 148.467 56.5201 151.519 56.1126V34.4696H158.714V54.742C172.669 51.1395 181.261 42.8786 181.261 31.9969C181.261 17.7071 166.15 7.76075 143.649 7.27917L140.052 7.20509L140.218 0L143.816 0.07409C174.667 0.750146 188.456 16.5773 188.456 31.9969Z" fill="white"/>
<path d="M0 114.281H9.42376C15.1113 114.281 18.8475 117.31 18.8475 122.348C18.8475 127.784 14.316 130.599 8.95211 130.599H2.83916V139.499H0V114.281ZM9.06308 128.006C13.234 128.006 15.9714 125.774 15.9714 122.385C15.9714 118.782 13.2709 116.911 9.21106 116.911H2.83916V128.006H9.06308Z" fill="white"/>
<path d="M24.0273 114.281H34.8568C37.9549 114.281 40.4334 115.217 42.0148 116.81C43.2355 118.032 43.9569 119.801 43.9569 121.857C43.9569 126.034 41.0807 128.488 37.1226 129.201L44.8632 139.508H41.3767L34.0707 129.71H26.8757V139.508H24.0366V114.281H24.0273ZM34.6071 127.145C38.3895 127.145 41.0807 125.2 41.0807 121.885C41.0807 118.782 38.704 116.911 34.6441 116.911H26.8757V127.145H34.6071Z" fill="white"/>
<path d="M48.9219 126.885C48.9219 119.93 54.1378 113.846 61.8044 113.846C69.471 113.846 74.6129 119.865 74.6129 126.885C74.6129 133.84 69.397 139.925 61.7304 139.925C54.0638 139.925 48.9219 133.914 48.9219 126.885ZM71.6628 126.885C71.6628 121.162 67.4919 116.476 61.7304 116.476C55.9781 116.476 51.872 121.088 51.872 126.885C51.872 132.609 56.0429 137.295 61.8044 137.295C67.5567 137.295 71.6628 132.692 71.6628 126.885Z" fill="white"/>
<path d="M77.0938 135.387L79.1468 133.618C80.6912 135.961 82.2727 137.22 84.8991 137.22C87.7383 137.22 89.8283 135.164 89.8283 131.173V114.271H92.7044V131.136C92.7044 134.09 91.8444 136.322 90.4017 137.767C88.996 139.137 87.0909 139.86 84.8621 139.86C81.0889 139.86 78.6752 137.98 77.0938 135.387Z" fill="white"/>
<path d="M99.4311 114.281H117.631V116.874H102.27V125.487H116.013V128.08H102.27V136.906H117.807V139.499H99.4219V114.281H99.4311Z" fill="white"/>
<path d="M122.422 126.885C122.422 119.754 127.749 113.846 135.156 113.846C139.725 113.846 142.388 115.54 144.904 117.921L143.036 119.939C140.918 117.921 138.541 116.476 135.119 116.476C129.543 116.476 125.372 121.014 125.372 126.885C125.372 132.72 129.58 137.295 135.119 137.295C138.578 137.295 140.835 135.961 143.248 133.655L145.117 135.637C142.49 138.304 139.614 139.925 135.045 139.925C127.786 139.925 122.422 134.201 122.422 126.885Z" fill="white"/>
<path d="M156.742 116.911H148.289V114.281H168.071V116.911H159.618V139.499H156.742V116.911Z" fill="white"/>
<path d="M172.07 114.281H179.053V123.718H188.005V114.281H194.987V139.499H188.005V129.914H179.053V139.499H172.07V114.281Z" fill="white"/>
<path d="M198.582 126.887C198.582 119.645 204.408 113.773 212.177 113.773C219.945 113.773 225.707 119.571 225.707 126.887C225.707 134.129 219.88 140.001 212.112 140.001C204.334 140.001 198.582 134.203 198.582 126.887ZM218.586 126.887C218.586 123.247 215.959 120.08 212.112 120.08C208.302 120.08 205.74 123.183 205.74 126.887C205.74 130.527 208.366 133.694 212.177 133.694C216.033 133.694 218.586 130.601 218.586 126.887Z" fill="white"/>
<path d="M229.344 114.281H236.724L242.735 124.042L248.746 114.281H256.126V139.499H249.181V125.015L242.744 134.887H242.605L236.206 125.089V139.499H229.372V114.281H229.344Z" fill="white"/>
<path d="M260.562 114.281H280.816V120.227H267.471V124.042H279.558V129.553H267.471V133.553H281.001V139.499H260.572V114.281H260.562Z" fill="white"/>
<path d="M133.35 0.371094H120.348V13.3643H133.35V0.371094Z" fill="white"/>
</svg>
