<svg width="77" height="39" viewBox="0 0 77 39" fill="none" xmlns="http://www.w3.org/2000/svg">
<path d="M34.8954 19.377H32.9238V25.981H34.8954V19.377Z" fill="white"/>
<path d="M51.6398 8.75553C51.6398 12.2527 49.0828 15.7752 43.4899 17.0169V25.9802H41.5184V17.3438C40.6897 17.435 39.8103 17.4883 38.8752 17.4883H25.3555V15.5167H32.9199V5.73988H34.8915V15.5192H38.8752C39.8027 15.5192 40.6821 15.466 41.5184 15.3545V9.43215H43.4899V14.9794C47.314 13.9936 49.6682 11.7332 49.6682 8.75553C49.6682 4.84532 45.5274 2.12363 39.3618 1.99185L38.376 1.97158L38.4216 0L39.4074 0.0202738C47.8614 0.205268 51.6398 4.53615 51.6398 8.75553Z" fill="white"/>
<path d="M0 31.2715H2.58231C4.14082 31.2715 5.16462 32.1002 5.16462 33.4787C5.16462 34.9663 3.92289 35.7367 2.45307 35.7367H0.77799V38.172H0V31.2715ZM2.48348 35.0271C3.62639 35.0271 4.3765 34.4164 4.3765 33.4889C4.3765 32.5031 3.63652 31.9912 2.52403 31.9912H0.77799V35.0271H2.48348Z" fill="white"/>
<path d="M6.58398 31.2715H9.55149C10.4004 31.2715 11.0796 31.5274 11.5129 31.9633C11.8474 32.2978 12.0451 32.7818 12.0451 33.3444C12.0451 34.4873 11.257 35.1589 10.1724 35.354L12.2935 38.1745H11.3381L9.33608 35.4934H7.3645V38.1745H6.58652V31.2715H6.58398ZM9.48306 34.7914C10.5195 34.7914 11.257 34.2593 11.257 33.352C11.257 32.5031 10.6057 31.9912 9.4932 31.9912H7.3645V34.7914H9.48306Z" fill="white"/>
<path d="M13.4062 34.7204C13.4062 32.8173 14.8355 31.1523 16.9363 31.1523C19.0372 31.1523 20.4462 32.7995 20.4462 34.7204C20.4462 36.6236 19.0169 38.2885 16.9161 38.2885C14.8152 38.2885 13.4062 36.6439 13.4062 34.7204ZM19.6378 34.7204C19.6378 33.1543 18.4948 31.872 16.9161 31.872C15.3398 31.872 14.2146 33.1341 14.2146 34.7204C14.2146 36.2866 15.3576 37.5688 16.9363 37.5688C18.5126 37.5688 19.6378 36.3094 19.6378 34.7204Z" fill="white"/>
<path d="M21.125 37.0474L21.6876 36.5634C22.1108 37.2045 22.5441 37.5492 23.2638 37.5492C24.0418 37.5492 24.6145 36.9866 24.6145 35.8944V31.2695H25.4027V35.8842C25.4027 36.6926 25.167 37.3034 24.7717 37.6987C24.3865 38.0738 23.8644 38.2714 23.2537 38.2714C22.2198 38.2714 21.5583 37.757 21.125 37.0474Z" fill="white"/>
<path d="M27.2467 31.2715H32.2339V31.9811H28.0247V34.3378H31.7904V35.0474H28.0247V37.4624H32.2821V38.172H27.2441V31.2715H27.2467Z" fill="white"/>
<path d="M33.5469 34.7204C33.5469 32.7691 35.0066 31.1523 37.0364 31.1523C38.2883 31.1523 39.0181 31.6161 39.7074 32.2674L39.1955 32.8198C38.6152 32.2674 37.9639 31.872 37.0263 31.872C35.4982 31.872 34.3553 33.1138 34.3553 34.7204C34.3553 36.317 35.5083 37.5688 37.0263 37.5688C37.9741 37.5688 38.5924 37.2039 39.2538 36.5729L39.7657 37.1152C39.046 37.8451 38.2579 38.2885 37.006 38.2885C35.0167 38.2885 33.5469 36.7224 33.5469 34.7204Z" fill="white"/>
<path d="M42.951 31.9912H40.6348V31.2715H46.0553V31.9912H43.7391V38.172H42.951V31.9912Z" fill="white"/>
<path d="M47.1504 31.2715H49.0637V33.8538H51.5168V31.2715H53.43V38.172H51.5168V35.5492H49.0637V38.172H47.1504V31.2715Z" fill="white"/>
<path d="M54.416 34.7212C54.416 32.7395 56.0125 31.1328 58.1412 31.1328C60.2699 31.1328 61.8487 32.7192 61.8487 34.7212C61.8487 36.7029 60.2522 38.3096 58.1235 38.3096C55.9923 38.3096 54.416 36.7232 54.416 34.7212ZM59.8974 34.7212C59.8974 33.7253 59.1777 32.8586 58.1235 32.8586C57.0794 32.8586 56.3775 33.7075 56.3775 34.7212C56.3775 35.7171 57.0972 36.5838 58.1412 36.5838C59.198 36.5838 59.8974 35.7374 59.8974 34.7212Z" fill="white"/>
<path d="M62.8457 31.2715H64.868L66.5152 33.9425L68.1624 31.2715H70.1846V38.172H68.2815V34.2086L66.5177 36.91H66.4797L64.7261 34.2289V38.172H62.8533V31.2715H62.8457Z" fill="white"/>
<path d="M71.3984 31.2715H76.9483V32.8984H73.2915V33.9425H76.6036V35.4503H73.2915V36.5451H76.9989V38.172H71.401V31.2715H71.3984Z" fill="white"/>
<path d="M36.5396 0.101562H32.9766V3.65699H36.5396V0.101562Z" fill="white"/>
</svg>
